# xmcd
#
# Track frame offsets:
#	150
#	14014
#	31481
#	51399
#	72753
#	91076
#	111558
#	124015
#	146288
#	166882
#	180718
#	197383
#	214703
#	231151
#
# Disc length: 3352 seconds
#
# Revision: 23
# Processed by: cddbd v1.5.2PL0 Copyright (c) Steve Scherf et al.
# Submitted via: Jack! The Knife 20 Magnifico
#
DISCID=c10d160e
DTITLE=Venom - Resurrection
DYEAR=2000
DGENRE=Black Metal
TTITLE0=Resurrection
TTITLE1=Vengeance
TTITLE2=War Against Christ
TTITLE3=All There Is Fear
TTITLE4=Pain
TTITLE5=Pandemonium
TTITLE6=Loaded
TTITLE7=Firelight
TTITLE8=Black Flame [Of Satan]
TTITLE9=Control Freak
TTITLE10=Disbeliever
TTITLE11=Man Myth and Magic
TTITLE12=Thirteen
TTITLE13=Leviathan
EXTD=Conrad Lant
EXTT0=Cronos, Mantas, Antton
EXTT1=Cronos, Mantas, Antton
EXTT2=Cronos, Mantas, Antton
EXTT3=Cronos, Mantas, Antton
EXTT4=Cronos, Mantas, Antton
EXTT5=Cronos, Mantas, Antton
EXTT6=Cronos, Mantas, Antton
EXTT7=Cronos, Mantas, Antton
EXTT8=Cronos, Mantas, Antton
EXTT9=Cronos, Mantas, Antton
EXTT10=Cronos, Mantas, Antton
EXTT11=Cronos, Mantas, Antton
EXTT12=Cronos, Mantas, Antton
EXTT13=Cronos, Mantas, Antton
PLAYORDER=
